<svg xmlns="http://www.w3.org/2000/svg" xmlns:xlink="http://www.w3.org/1999/xlink" width="344.973" height="328.934" viewBox="0 0 344.973 328.934"><defs><style>.a{fill:#c0ffd3;}.b,.d{fill:#84f27e;}.c{opacity:0.52;}.d{mix-blend-mode:overlay;isolation:isolate;}.e{fill:#8d8d8d;}.f{fill:url(#a);}.g{opacity:0.5;}.h{fill:#e0e8fe;}.i{fill:#7ef291;}.j{fill:#585858;}.k{fill:#fefeba;}.l{fill:#395f71;}.m{fill:url(#ab);}.n{fill:#1e1e1e;}.o{fill:url(#ac);}.p{fill:url(#ad);}.q{fill:url(#ae);}.r{fill:url(#af);}.s{fill:url(#ag);}.t{fill:url(#ah);}.u{fill:url(#ai);}.v{fill:url(#aj);}.w{fill:url(#ak);}.x{fill:url(#al);}.y{fill:url(#am);}.z{fill:url(#an);}.aa{fill:url(#ao);}.ab{fill:url(#ap);}.ac{fill:url(#aq);}.ad{fill:url(#ar);}.ae{fill:url(#as);}.af{fill:url(#at);}.ag{fill:url(#au);}.ah{fill:url(#av);}.ai{fill:url(#aw);}.aj{fill:url(#ax);}</style><linearGradient id="a" y1="0.5" x2="1" y2="0.5" gradientUnits="objectBoundingBox"><stop offset="0" stop-color="#dae3fe"/><stop offset="1" stop-color="#e9effd"/></linearGradient><linearGradient id="ab" x1="1.348" y1="-1.458" x2="4.594" y2="-8.947" gradientUnits="objectBoundingBox"><stop offset="0" stop-color="#09005d"/><stop offset="1" stop-color="#1a0f91"/></linearGradient><linearGradient id="ac" x1="-20.41" y1="0.5" x2="-19.41" y2="0.5" xlink:href="#ab"/><linearGradient id="ad" x1="-53.421" y1="-0.843" x2="-53.928" y2="2.39" gradientUnits="objectBoundingBox"><stop offset="0" stop-color="#febbba"/><stop offset="1" stop-color="#ff928e"/></linearGradient><linearGradient id="ae" x1="-14.178" y1="0.5" x2="-13.178" y2="0.5" xlink:href="#ab"/><linearGradient id="af" x1="-48.352" y1="-2.028" x2="-48.832" y2="0.687" xlink:href="#ad"/><linearGradient id="ag" x1="-7.309" y1="1.152" x2="-6.517" y2="-0.284" xlink:href="#ab"/><linearGradient id="ah" x1="2.252" y1="-0.791" x2="-2.568" y2="2.342" gradientUnits="objectBoundingBox"><stop offset="0" stop-color="#4042e2"/><stop offset="1" stop-color="#4f52ff"/></linearGradient><linearGradient id="ai" x1="1.219" y1="-0.107" x2="-1.203" y2="2.12" xlink:href="#ah"/><linearGradient id="aj" x1="-17.788" y1="1.219" x2="-17.397" y2="0.33" xlink:href="#ad"/><linearGradient id="ak" x1="1.312" y1="-4.691" x2="1.05" y2="-3.017" xlink:href="#ah"/><linearGradient id="al" x1="0.886" y1="-2.918" x2="0.734" y2="-1.558" xlink:href="#ah"/><linearGradient id="am" x1="-16.536" y1="0.277" x2="-18.795" y2="1.877" xlink:href="#ad"/><linearGradient id="an" x1="-12.351" y1="0.152" x2="-11.601" y2="1.129" xlink:href="#ab"/><linearGradient id="ao" x1="-68.654" y1="-0.685" x2="-73.204" y2="1.784" xlink:href="#ad"/><linearGradient id="ap" x1="-114.487" y1="-0.443" x2="-102.497" y2="3.609" xlink:href="#ad"/><linearGradient id="aq" x1="-8.415" y1="-0.123" x2="-7.482" y2="1.014" xlink:href="#ad"/><linearGradient id="ar" x1="-69.985" y1="0.261" x2="-62.787" y2="2.696" xlink:href="#ad"/><linearGradient id="as" x1="-0.776" y1="0.529" x2="-1.413" y2="2.466" gradientUnits="objectBoundingBox"><stop offset="0" stop-color="#e1473d"/><stop offset="1" stop-color="#e9605a"/></linearGradient><linearGradient id="at" x1="4.281" y1="-4.156" x2="3.693" y2="-2.497" gradientUnits="objectBoundingBox"><stop offset="0" stop-color="#fe7062"/><stop offset="1" stop-color="#ff928e"/></linearGradient><linearGradient id="au" x1="-2.365" y1="1.376" x2="-1.337" y2="3.786" gradientUnits="objectBoundingBox"><stop offset="0" stop-color="#ff9085"/><stop offset="1" stop-color="#fb6fbb"/></linearGradient><linearGradient id="av" x1="0.594" y1="0.278" x2="0.933" y2="-0.972" xlink:href="#at"/><linearGradient id="aw" x1="1.69" y1="-1.805" x2="1.556" y2="-1.546" xlink:href="#at"/><linearGradient id="ax" x1="-3.867" y1="15.588" x2="-4.672" y2="20.694" xlink:href="#ad"/></defs><g transform="translate(-468.032 -456.817)"><path class="a" d="M772.107,755.079A122.838,122.838,0,0,1,753.083,770.1c-62.063,41.764-135.5,29.59-151.107,26.617-23.047-4.39-67.6-12.876-99.805-48.4-48.729-53.743-41.141-138.415-3.344-194.307,6.914-10.224,43.434-66.968,117.661-76.068,44.922-5.507,97.286,5.6,135.207,35.4C831.294,575.884,825.628,702.235,772.107,755.079Z" transform="translate(0 -17.518)"/><g transform="translate(470.099 556.79)"><g transform="translate(61.596)"><path class="b" d="M964.439,1222.455a2.831,2.831,0,0,1,2.865-2.736h94.712c1.583,0,3.263,1.258,3.263,2.794v214.668a4.473,4.473,0,0,1-1.505,3.057,4.757,4.757,0,0,1-3.251,1.26l-95.749-.254a4.571,4.571,0,0,1-3.19-1.3,4.27,4.27,0,0,1-1.28-3.1Z" transform="translate(-960.302 -1219.719)"/><g class="c" transform="translate(14.449 11.344)"><path class="d" d="M1474.608,1323.272l30.982-.1-.012-3.765-30.948.095Z" transform="translate(-1430.529 -1319.403)"/><path class="d" d="M1473.862,1444.62l31.11-.138-.012-3.8-31.075.129Z" transform="translate(-1429.867 -1426.885)"/><path class="d" d="M1473.109,1566.968l31.238-.172-.012-3.827-31.2.163Z" transform="translate(-1429.2 -1535.25)"/><path class="d" d="M1472.35,1690.33l31.368-.207-.012-3.859-31.332.2Z" transform="translate(-1428.528 -1644.515)"/><path class="d" d="M1471.585,1814.715l31.5-.242-.012-3.891-31.463.233Z" transform="translate(-1427.85 -1754.685)"/><path class="d" d="M1470.036,2066.61l31.763-.315-.012-3.956-31.726.3Z" transform="translate(-1426.477 -1977.792)"/><path class="d" d="M1467.662,2452.468l32.168-.428-.012-4.058-32.131.418Z" transform="translate(-1424.373 -2319.548)"/><path class="d" d="M1470.814,1940.137l31.63-.278-.012-3.923-31.594.269Z" transform="translate(-1427.166 -1865.773)"/><path class="d" d="M1469.251,2194.148l31.9-.352-.012-3.99-31.86.342Z" transform="translate(-1425.781 -2090.753)"/><path class="d" d="M1468.46,2322.763l32.032-.39-.012-4.024-31.995.38Z" transform="translate(-1425.08 -2204.668)"/><path class="d" d="M1466.857,2583.277l32.305-.468-.013-4.092-32.268.457Z" transform="translate(-1423.66 -2435.406)"/><path class="d" d="M1466.045,2715.207l32.444-.508-.013-4.127-32.406.5Z" transform="translate(-1422.94 -2552.255)"/><path class="d" d="M1465.227,2848.272l32.584-.548-.013-4.163-32.545.537Z" transform="translate(-1422.215 -2670.11)"/><path class="d" d="M1464.4,2982.483l32.725-.589-.013-4.2-32.686.578Z" transform="translate(-1421.483 -2788.979)"/><path class="d" d="M1117.667,1324.374l31.177-.1.034-3.777-31.142.1Z" transform="translate(-1114.208 -1320.369)"/><path class="d" d="M1115.444,1446.108l31.306-.139.034-3.808-31.27.129Z" transform="translate(-1112.238 -1428.191)"/><path class="d" d="M1113.2,1568.847l31.436-.173.034-3.839-31.4.164Z" transform="translate(-1110.253 -1536.904)"/><path class="d" d="M1110.945,1692.608l31.567-.208.035-3.871-31.531.2Z" transform="translate(-1108.251 -1646.521)"/><path class="d" d="M1108.667,1817.4l31.7-.244.035-3.9-31.663.234Z" transform="translate(-1106.232 -1757.049)"/><path class="d" d="M1104.052,2070.121l31.967-.317.036-3.969-31.931.307Z" transform="translate(-1102.142 -1980.89)"/><path class="d" d="M1096.984,2457.277l32.378-.431.036-4.072-32.34.421Z" transform="translate(-1095.878 -2323.795)"/><path class="d" d="M1106.369,1943.231l31.833-.28.035-3.936-31.8.27Z" transform="translate(-1104.196 -1868.502)"/><path class="d" d="M1101.716,2198.086l32.1-.354.036-4-32.066.344Z" transform="translate(-1100.072 -2094.229)"/><path class="d" d="M1099.36,2327.132l32.24-.393.036-4.037-32.2.382Z" transform="translate(-1097.984 -2208.526)"/><path class="d" d="M1094.587,2588.534l32.517-.471.037-4.106-32.479.46Z" transform="translate(-1093.754 -2440.049)"/><path class="d" d="M1092.17,2720.917l32.657-.511.037-4.142-32.619.5Z" transform="translate(-1091.612 -2557.3)"/><path class="d" d="M1089.731,2854.444l32.8-.551.037-4.178-32.76.54Z" transform="translate(-1089.451 -2675.564)"/><path class="d" d="M1087.272,2989.125l32.941-.593.038-4.214-32.9.582Z" transform="translate(-1087.272 -2794.849)"/></g></g><g transform="translate(0 58.752)"><path class="e" d="M489.935,1739.181c.042-1.753,1.842-3.2,4.049-3.2H577.4c2.237,0,4.433,1.518,4.433,3.3v158.856a3.169,3.169,0,0,1-1.382,2.279,4.922,4.922,0,0,1-2.967.939l-87.218-.189a4.687,4.687,0,0,1-2.907-.967,2.953,2.953,0,0,1-1.167-2.331Z" transform="translate(-486.194 -1735.985)"/><g transform="translate(10.312 9.014)"><g transform="translate(1.615)"><path class="f" d="M1058.891,1824.9l23.764-.025.189-9.68h-23.787Z" transform="translate(-1005.645 -1815.197)"/><path class="f" d="M824.828,1824.9l23.74-.025.163-9.675H824.968Z" transform="translate(-798.218 -1815.197)"/><path class="f" d="M591,1824.892l23.716-.026.137-9.67H591.114Z" transform="translate(-591 -1815.197)"/></g><g transform="translate(1.41 17.45)"><path class="f" d="M1056.282,1978.3l23.723.012.188-9.616-23.745-.008Z" transform="translate(-1003.128 -1968.669)"/><path class="f" d="M822.626,1978.216l23.7.012.162-9.611-23.722-.008Z" transform="translate(-796.063 -1968.6)"/><path class="f" d="M589.205,1978.135l23.675.012.136-9.607-23.7-.008Z" transform="translate(-589.205 -1968.533)"/></g><g transform="translate(1.207 34.721)"><path class="f" d="M1053.681,2130.183l23.681.02.187-9.583-23.7-.016Z" transform="translate(-1000.62 -2120.569)"/><path class="f" d="M820.432,2130.025l23.658.02.161-9.578-23.68-.016Z" transform="translate(-793.915 -2120.434)"/><path class="f" d="M587.417,2129.868l23.634.02.136-9.573-23.657-.015Z" transform="translate(-587.417 -2120.299)"/></g><g transform="translate(1.004 51.932)"><path class="f" d="M1051.09,2281.54l23.64.028.187-9.55-23.663-.023Z" transform="translate(-998.12 -2271.943)"/><path class="f" d="M818.245,2281.308l23.617.027.161-9.545-23.639-.023Z" transform="translate(-791.774 -2271.741)"/><path class="f" d="M585.634,2281.075l23.593.027.135-9.54-23.616-.023Z" transform="translate(-585.634 -2271.539)"/></g><g transform="translate(0.802 69.084)"><path class="f" d="M1048.507,2432.375l23.6.035.186-9.517-23.622-.031Z" transform="translate(-995.63 -2422.793)"/><path class="f" d="M816.066,2432.067l23.576.035.16-9.512-23.6-.031Z" transform="translate(-789.64 -2422.525)"/><path class="f" d="M583.857,2431.76l23.552.035.135-9.508-23.575-.031Z" transform="translate(-583.857 -2422.257)"/></g><g transform="translate(0.6 86.177)"><path class="f" d="M1045.934,2582.688l23.558.043.185-9.484-23.581-.039Z" transform="translate(-993.148 -2573.123)"/><path class="f" d="M813.894,2582.306l23.535.042.16-9.479-23.557-.038Z" transform="translate(-787.514 -2572.788)"/><path class="f" d="M582.087,2581.925l23.511.042.135-9.475-23.534-.038Z" transform="translate(-582.087 -2572.454)"/></g><g transform="translate(0.399 103.211)"><path class="f" d="M1043.368,2732.485l23.517.05.185-9.451-23.54-.046Z" transform="translate(-990.673 -2722.935)"/><path class="f" d="M811.73,2732.028l23.494.05.159-9.447-23.517-.046Z" transform="translate(-785.396 -2722.534)"/><path class="f" d="M580.322,2731.572l23.471.05.134-9.442-23.493-.046Z" transform="translate(-580.322 -2722.134)"/></g><g transform="translate(0.199 120.186)"><path class="f" d="M1040.813,2881.764l23.477.057.184-9.419-23.5-.053Z" transform="translate(-988.208 -2872.23)"/><path class="f" d="M809.574,2881.235l23.454.057.159-9.414-23.476-.053Z" transform="translate(-783.284 -2871.765)"/><path class="f" d="M578.564,2880.706l23.43.057.133-9.41-23.453-.053Z" transform="translate(-578.564 -2871.3)"/></g><g transform="translate(0 137.103)"><path class="f" d="M1038.265,3030.532l23.437.064.183-9.386-23.459-.061Z" transform="translate(-985.751 -3021.014)"/><path class="f" d="M807.424,3029.929l23.413.064.158-9.382-23.436-.061Z" transform="translate(-781.18 -3020.483)"/><path class="f" d="M576.812,3029.327l23.39.064.133-9.377-23.413-.061Z" transform="translate(-576.812 -3019.954)"/></g></g></g><g transform="translate(247.266 62.545)"><path class="e" d="M2403.32,1772.516c.041-1.754,1.842-3.2,4.049-3.2h83.418c2.237,0,4.433,1.518,4.433,3.3V1931.47a3.169,3.169,0,0,1-1.382,2.279,4.922,4.922,0,0,1-2.967.939l-87.218-.189a4.688,4.688,0,0,1-2.907-.967,2.953,2.953,0,0,1-1.167-2.331Z" transform="translate(-2399.579 -1769.319)"/><g class="g" transform="translate(10.312 9.014)"><g transform="translate(1.615)"><path class="h" d="M2972.276,1858.236l23.764-.025.188-9.68h-23.787Z" transform="translate(-2919.029 -1848.531)"/><path class="h" d="M2738.212,1858.231l23.74-.025.163-9.675h-23.763Z" transform="translate(-2711.603 -1848.531)"/><path class="h" d="M2504.384,1858.226l23.716-.025.137-9.67H2504.5Z" transform="translate(-2504.384 -1848.531)"/></g><g transform="translate(1.41 17.45)"><path class="h" d="M2969.666,2011.633l23.722.012.188-9.617-23.746-.008Z" transform="translate(-2916.512 -2002.003)"/><path class="h" d="M2736.011,2011.551l23.7.012.162-9.612-23.721-.008Z" transform="translate(-2709.447 -2001.935)"/><path class="h" d="M2502.59,2011.47l23.675.012.136-9.607-23.7-.008Z" transform="translate(-2502.59 -2001.867)"/></g><g transform="translate(1.207 34.721)"><path class="h" d="M2967.066,2163.517l23.681.02.187-9.583-23.7-.015Z" transform="translate(-2914.005 -2153.903)"/><path class="h" d="M2733.817,2163.36l23.657.02.161-9.578-23.68-.015Z" transform="translate(-2707.299 -2153.768)"/><path class="h" d="M2500.8,2163.2l23.634.02.136-9.573-23.656-.015Z" transform="translate(-2500.801 -2153.633)"/></g><g transform="translate(1.004 51.932)"><path class="h" d="M2964.474,2314.875l23.64.027.187-9.55-23.663-.023Z" transform="translate(-2911.505 -2305.277)"/><path class="h" d="M2731.63,2314.642l23.617.028.161-9.545-23.639-.023Z" transform="translate(-2705.158 -2305.075)"/><path class="h" d="M2499.018,2314.409l23.593.027.135-9.54-23.616-.023Z" transform="translate(-2499.018 -2304.873)"/></g><g transform="translate(0.802 69.084)"><path class="h" d="M2961.892,2465.709l23.6.035.186-9.517-23.622-.031Z" transform="translate(-2909.014 -2456.127)"/><path class="h" d="M2729.451,2465.4l23.576.035.16-9.512-23.6-.031Z" transform="translate(-2703.025 -2455.859)"/><path class="h" d="M2497.241,2465.094l23.552.035.135-9.508-23.575-.031Z" transform="translate(-2497.241 -2455.591)"/></g><g transform="translate(0.6 86.177)"><path class="h" d="M2959.318,2616.023l23.558.042.186-9.484-23.581-.038Z" transform="translate(-2906.532 -2606.457)"/><path class="h" d="M2727.279,2615.641l23.535.042.16-9.479-23.558-.039Z" transform="translate(-2700.899 -2606.122)"/><path class="h" d="M2495.471,2615.259l23.511.042.135-9.475-23.534-.038Z" transform="translate(-2495.471 -2605.789)"/></g><g transform="translate(0.399 103.211)"><path class="h" d="M2956.753,2765.819l23.518.05.185-9.451-23.54-.046Z" transform="translate(-2904.058 -2756.269)"/><path class="h" d="M2725.115,2765.362l23.494.05.159-9.447-23.517-.045Z" transform="translate(-2698.781 -2755.868)"/><path class="h" d="M2493.707,2764.906l23.471.05.134-9.442-23.494-.046Z" transform="translate(-2493.707 -2755.468)"/></g><g transform="translate(0.199 120.186)"><path class="h" d="M2954.2,2915.1l23.477.058.184-9.418-23.5-.054Z" transform="translate(-2901.593 -2905.564)"/><path class="h" d="M2722.958,2914.569l23.454.058.158-9.414-23.476-.053Z" transform="translate(-2696.669 -2905.1)"/><path class="h" d="M2491.948,2914.04l23.43.057.133-9.41-23.453-.053Z" transform="translate(-2491.948 -2904.634)"/></g><g transform="translate(0 137.103)"><path class="h" d="M2951.649,3063.867l23.437.065.183-9.386-23.459-.061Z" transform="translate(-2899.135 -3054.348)"/><path class="h" d="M2720.809,3063.263l23.413.065.158-9.382-23.436-.061Z" transform="translate(-2694.565 -3053.817)"/><path class="h" d="M2490.2,3062.661l23.39.065.133-9.378-23.413-.06Z" transform="translate(-2490.196 -3053.288)"/></g></g></g></g><g transform="translate(470.298 456.817)"><g transform="translate(0 79.774)"><path class="b" d="M626.3,1171.377c-6.808-21.375-19.98-38.41-35.583-48.424a63.482,63.482,0,0,1-27.717-39q-.586-2.539-1.4-5.087c-8.188-25.707-30.645-41.508-50.16-35.292s-28.7,32.094-20.509,57.8a62.916,62.916,0,0,0,6.666,14.421,63.711,63.711,0,0,1,8.886,46.348,93.51,93.51,0,0,0,3.023,46.432c7.612,23.9,23.182,42.376,41.209,51.677a62.658,62.658,0,0,1,18.059,13.965c8.462,9.5,20.386,13.965,31.342,10.476,11.819-3.765,19.2-15.733,19.734-29.7a66.812,66.812,0,0,1,5.187-22.969C632.195,1214.74,633.186,1192.987,626.3,1171.377Z" transform="translate(-487.943 -1042.221)"/><path class="b" d="M825.563,1275.286c7.961,16.178,15.393,32.6,22.652,49.1,1.817,4.124,3.567,8.276,5.33,12.423l2.644,6.221,2.592,6.243c1.712,4.169,3.481,8.313,5.145,12.5l4.993,12.564c3.222,8.418,6.515,16.809,9.579,25.288,1.538,4.237,3.159,8.443,4.61,12.711l4.413,12.782c5.711,17.1,10.993,34.354,15.388,51.843l-.755.2-3.788-12.958-.94-3.24-1.021-3.217-2.054-6.43-2.042-6.432c-.677-2.145-1.433-4.266-2.146-6.4-1.454-4.258-2.874-8.527-4.356-12.776-6.037-16.956-12.3-33.831-18.913-50.575-3.371-8.347-6.669-16.721-10.1-25.045l-2.554-6.249-2.607-6.228c-1.735-4.153-3.471-8.306-5.249-12.442q-5.227-12.452-10.641-24.826-5.353-12.4-10.888-24.721Z" transform="translate(-786.517 -1248.763)"/></g><g transform="translate(67.344)"><path class="i" d="M1207.68,617.685c-3.182-24.5-13.7-45.5-27.978-59.334a71.613,71.613,0,0,1-21.564-47.607q-.149-2.868-.526-5.788c-3.826-29.463-24.13-50.887-45.35-47.852s-35.32,29.38-31.493,58.843a72.392,72.392,0,0,0,4.282,16.922,73.735,73.735,0,0,1,.845,52,108.205,108.205,0,0,0-5.21,50.978c3.558,27.393,16.286,50.41,33.191,63.936a68.007,68.007,0,0,1,16.1,18.6c7.014,11.922,18.5,19.037,30.412,17.333,12.852-1.838,22.6-13.426,25.656-28.483a75.751,75.751,0,0,1,9.463-23.948C1205.975,665.879,1210.9,642.454,1207.68,617.685Z" transform="translate(-1079.712 -456.817)"/><path class="b" d="M1460.674,712.759c5.3,19.25,10.014,38.666,14.535,58.133,1.132,4.866,2.191,9.751,3.264,14.633l1.609,7.322,1.551,7.336c1.016,4.9,2.1,9.776,3.059,14.683l2.892,14.722c1.809,9.841,3.7,19.665,5.334,29.541.825,4.936,1.74,9.855,2.471,14.81l2.255,14.849c2.818,19.83,5.166,39.745,6.559,59.746l-.813.072-1.58-14.923-.387-3.73-.475-3.72-.964-7.438-.95-7.438c-.312-2.48-.712-4.948-1.063-7.422-.735-4.944-1.432-9.893-2.2-14.831-3.18-19.734-6.607-39.423-10.417-59.034-1.976-9.79-3.873-19.6-5.913-29.374l-1.511-7.336-1.569-7.323c-1.044-4.883-2.087-9.766-3.177-14.637q-3.153-14.644-6.512-29.239c-2.194-9.741-4.476-19.462-6.786-29.172Z" transform="translate(-1416.622 -683.632)"/></g></g><g transform="translate(604.81 528.156)"><rect class="j" width="190.472" height="255.547" rx="23.034"/><rect class="k" width="143.327" height="183.493" rx="71.663" transform="translate(23.37 38.392)"/><rect class="l" width="121.565" height="155.633" rx="22.802" transform="translate(34.307 53.486)"/><circle class="m" cx="5.698" cy="5.698" r="5.698" transform="translate(86.83 19.595) rotate(-45)"/><path class="k" d="M1918.159,1948.589l-73.307,1.219c-5.58.093-10.119,4.431-10.119,9.69v46.167c0,5.259,4.539,9.34,10.119,9.116l73.307-2.944a9.828,9.828,0,0,0,9.52-9.585v-44.618A9.175,9.175,0,0,0,1918.159,1948.589Z" transform="translate(-1786.459 -1837.007)"/><path class="k" d="M2013.526,1563.042a3.887,3.887,0,0,1-4.023-3.827v-10.1c0-10.137-8.574-18.359-19.188-18.328l-23.882.069c-10.887.032-19.809,8.5-19.809,18.87v10.34a4.181,4.181,0,0,1-4.226,4.041,4.048,4.048,0,0,1-4.239-3.927V1549.8c0-14.806,12.756-26.851,28.274-26.851h23.882c15.078,0,27.222,11.7,27.222,26.08v10.074A4.016,4.016,0,0,1,2013.526,1563.042Z" transform="translate(-1878.114 -1459.81)"/><path class="n" d="M2202.042,2104.805a9.025,9.025,0,0,0-9.923-8.788,9.672,9.672,0,0,0-9.056,8.787,8.685,8.685,0,0,0,4.746,8.222,3.219,3.219,0,0,1,1.653,3.449l-2.093,11.746a2.376,2.376,0,0,0,2.518,2.753l5.379-.193a2.564,2.564,0,0,0,2.5-2.922l-2.092-11.637a3.451,3.451,0,0,1,1.745-3.528A9.258,9.258,0,0,0,2202.042,2104.805Z" transform="translate(-2095.135 -1967.638)"/></g><g transform="translate(514.829 588.293)"><g transform="translate(0.563 94.857)"><path class="o" d="M951.078,3139.048a1.157,1.157,0,0,0-.031-.3c-1.52-6.027-9.065-9.781-9.065-9.781l-2.99.234c-1.719,5.312-1.5,8.569-1.222,10.021.008.041.02.08.031.119A70.954,70.954,0,0,0,951.078,3139.048Z" transform="translate(-931.506 -3038.048)"/><path class="b" d="M939.512,3217.875a1.3,1.3,0,0,0,.949.958c3.508.738,9.084.144,11.426-.162a1.088,1.088,0,0,0,.9-1.084A70.948,70.948,0,0,1,939.512,3217.875Z" transform="translate(-933.217 -3116.587)"/><path class="p" d="M939.416,3091.891l1.266,6.1a1,1,0,0,0,.852.82,8.451,8.451,0,0,0,1.962-.031,1.253,1.253,0,0,0,.992-1.472l-.88-5.412Z" transform="translate(-933.132 -3005.196)"/><path class="b" d="M1124.067,3212.885a17.846,17.846,0,0,1-5.893-.842c0,.329,0,.663.01,1.009a.652.652,0,0,0,.622.663l18.13-.117a.828.828,0,0,0,.666-1.206C1135.226,3212.588,1129.171,3213.028,1124.067,3212.885Z" transform="translate(-1091.547 -3111.674)"/><path class="q" d="M1137.609,3145.937a.832.832,0,0,0-.072-.137c-1.6-2.237-5.679-6.692-13.737-8.625l-3.866-.122s-1.721,2.992-1.754,8.534a17.834,17.834,0,0,0,5.893.842C1129.177,3146.573,1135.232,3146.134,1137.609,3145.937Z" transform="translate(-1091.552 -3045.219)"/><path class="r" d="M1125.78,3077.412c.061.285.865,4.623,1.177,6.3a.841.841,0,0,0,.756.713,8.837,8.837,0,0,0,2.648-.208,1.144,1.144,0,0,0,.793-1.2l-.432-6.861Z" transform="translate(-1098.287 -2991.256)"/><path class="s" d="M908.758,2336.144s5.318,36.541,9.155,80.024a1.657,1.657,0,0,1-1.369,1.682,20.117,20.117,0,0,1-4.322.5,1.6,1.6,0,0,1-1.526-1.337c-1.307-7.667-10.636-48.814-13.085-57.87,0,0-2.812,38.468-1.914,58.425a.946.946,0,0,1-.834.984,15.879,15.879,0,0,1-3.47-.01,1.266,1.266,0,0,1-1.128-1.075c-.931-6.489-6.291-45.111-6.063-72.933.013-1.569,1.841-14.46,1.841-14.46Z" transform="translate(-884.195 -2330.075)"/></g><path class="t" d="M1118.147,1843.429l.712,19.121a52.657,52.657,0,0,0,5.781,1.642,57.772,57.772,0,0,1,5.74-11.593A28.345,28.345,0,0,1,1118.147,1843.429Z" transform="translate(-1090.96 -1803.953)"/><path class="u" d="M880.862,1866a1.5,1.5,0,0,1-.987-1.267c-.707-6.861-4.131-49.4,17.485-66.9,0,0,1.24-3.244,11.429,4.729s4.734,16.329,2.295,27.855c-2.952,13.948-8.131,25.349-5.84,33.932a1.19,1.19,0,0,1-.728,1.426A33.75,33.75,0,0,1,880.862,1866Z" transform="translate(-879.25 -1762.972)"/><path class="v" d="M1045.205,1690.922c-.007.605-8.638,12.865-8.638,12.865s1.549,3.051,8.946,5.529l6.385-13.127Z" transform="translate(-1018.664 -1668.801)"/><path class="w" d="M994.3,1960.723a.278.278,0,0,1-.157-.048,31.514,31.514,0,0,1-10.171-12.254.28.28,0,0,1,.516-.219,30.91,30.91,0,0,0,9.969,12.009.28.28,0,0,1-.157.513Z" transform="translate(-972.036 -1896.651)"/><path class="x" d="M1024.73,1846.4a.28.28,0,0,1-.236-.129c-.021-.032-2.128-3.311-6.14-10.5a8.088,8.088,0,0,0-4.82-4.158,9.415,9.415,0,0,0-6.419.852.28.28,0,1,1-.277-.487,9.788,9.788,0,0,1,6.842-.906,8.621,8.621,0,0,1,5.163,4.425c4,7.166,6.1,10.434,6.122,10.466a.281.281,0,0,1-.235.432Z" transform="translate(-992.193 -1792.754)"/><g transform="translate(15.509 7.394)"><path class="y" d="M1076.268,1629.189s3.071,7.055,3.278,10.758,1,6.106-3.278,6.852a9.1,9.1,0,0,1-9.843-5.076s-3.062-5.684-2.375-8.011S1076.268,1629.189,1076.268,1629.189Z" transform="translate(-1058.44 -1621.487)"/><path class="z" d="M1024.978,1579.1l.244-.108a.588.588,0,0,0,.287-.807c-.6-1.167-1.781-3.84-.26-4.464,1.96-.8,9.722-2.387,11.4-5.141a5.125,5.125,0,0,0-1.96-7.036.3.3,0,0,0-.386.126l-.179.338a.291.291,0,0,1-.537-.055h0a.29.29,0,0,0-.524-.075c-.515.824-1.9,2.16-5.621,2.846-5.282.975-8.775,3.113-8.861,6.763a.291.291,0,0,1-.45.24c-.39-.238-1.014-.349-1.848.352-1.451,1.22-.857,4.384,2.323,6.987a.289.289,0,0,1-.014.466c-.576.375-1.436,1.268.791,2.459a7.5,7.5,0,0,0,4.686,1.021.289.289,0,0,0,.235-.35l-.707-3.208a.291.291,0,0,1,.284-.353Z" transform="translate(-1015.529 -1561.514)"/><path class="aa" d="M1069.68,1694.976s-1.172-4.507-3.192-3.243,1.049,5.05,2.673,5.218Z" transform="translate(-1060.099 -1676.715)"/></g><path class="ab" d="M1435.956,1774.783s-1.539-2.73-1.441-4.056-.729-3.273.151-3.129,1.061.027,1.3,1.618S1438.979,1777.757,1435.956,1774.783Z" transform="translate(-1371.096 -1736.745)"/><path class="ac" d="M1206.67,1792.658l-.035,5.453c-10.421,11.251-18.855,11.914-25.7,9.5a57.778,57.778,0,0,0-5.74,11.592c27.829,6.135,34.382-19.448,34.382-19.448,3.769-1.561,4.529-2.475,4.367-3.5Z" transform="translate(-1141.521 -1758.96)"/><path class="ad" d="M1484.021,1723.267c-.889-.361-2.63-3.679-2.963-2.588s.141,2.588,0,3.052-2.311,5.8-1.877,6.991c.313.856,2.035.729,2.3,2.13a.9.9,0,0,0,1.78,0C1483.294,1732.667,1484.91,1723.628,1484.021,1723.267Z" transform="translate(-1410.857 -1694.978)"/><g transform="translate(41.72 0)"><path class="ae" d="M1248.891,1524.78a28.2,28.2,0,0,0,45.424,32.349l48.289,24.415a2.625,2.625,0,0,0,2.528-.087l4.723-2.813a2.585,2.585,0,0,0,.232-.157c.021-.016.041-.032.061-.049q.082-.066.159-.137l.051-.049a2.586,2.586,0,0,0,.178-.194l0,0a2.625,2.625,0,0,0,.411-2.639l-3.838-9.62a2.624,2.624,0,0,0-1.254-1.37l-4.837-2.446-1.28,2.532-4.155-2.1,1.28-2.531-3.887-1.965-1.178,2.329-5.05-2.553,1.178-2.329-1.882-.951-.606,1.2-4.233-2.141.606-1.2-3.293-1.665-1.28,2.531-2.352-1.189,1.28-2.531-2.039-1.031-1.28,2.532-4.077-2.061,1.28-2.532-5.73-2.9h0l-2.454-1.241a28.2,28.2,0,0,0-52.98-17.4Zm16.452,1.92a5.71,5.71,0,1,1-7.672,2.519A5.71,5.71,0,0,1,1265.344,1526.7Z" transform="translate(-1245.852 -1507.847)"/><path class="af" d="M1594.3,1720.178l22.892,11.574-1.28,2.531,4.076,2.061,1.28-2.532,2.038,1.031-1.28,2.531,2.352,1.189,1.28-2.532,3.293,1.665-.606,1.2,4.233,2.141.606-1.2,1.881.951-1.177,2.329,5.05,2.553,1.177-2.329,3.887,1.965-1.28,2.532,4.155,2.1,1.28-2.531,4.837,2.445a2.626,2.626,0,0,1,1.254,1.37l3.838,9.62a2.626,2.626,0,0,1-1.095,3.228l-4.723,2.813a2.625,2.625,0,0,1-2.528.087l-58.293-29.473Z" transform="translate(-1552.119 -1694.728)"/><path class="ag" d="M1268.971,1549.915a28.2,28.2,0,1,0-12.442-37.889A28.2,28.2,0,0,0,1268.971,1549.915Zm-1.142-25.777a5.71,5.71,0,1,1,7.672-2.519A5.71,5.71,0,0,1,1267.83,1524.138Z" transform="translate(-1252.621 -1496.545)"/><path class="ah" d="M1301.954,1544.375l48.289,24.415a2.625,2.625,0,0,0,2.528-.087l4.723-2.813a2.62,2.62,0,0,0,1.256-1.917c-4.4-4.769-46.237-23.037-47.8-26.8-.557-1.337-.652-3.363,1.016-6.5l-2.454-1.241a28.2,28.2,0,1,0-7.556,14.944Zm-28.972-30.429a5.71,5.71,0,1,1-7.672,2.519A5.71,5.71,0,0,1,1272.982,1513.946Z" transform="translate(-1252.621 -1496.545)"/><path class="ai" d="M1314.575,1588.083a22.665,22.665,0,1,0-10-30.453A22.665,22.665,0,0,0,1314.575,1588.083Zm-3.639-20.838a5.71,5.71,0,1,1,7.672-2.519A5.71,5.71,0,0,1,1310.936,1567.244Z" transform="translate(-1295.727 -1539.651)"/></g><path class="aj" d="M1074.9,1966.538s26.555,8.89,41.409-2.419a4.211,4.211,0,0,1,3.227-.821l5.675.924a4.538,4.538,0,0,0,5.164-3.513,9.549,9.549,0,0,0,.135-4.08l-10.712-.646.306-1.39s-4.735,1.158-4.83,4.863c0,0-11.107,7.275-31.364-4.017C1083.91,1955.438,1076.021,1961.611,1074.9,1966.538Z" transform="translate(-1052.635 -1902.466)"/></g></g></svg>